<!--?xml version="1.0" standalone="no"?-->
              <svg id="sw-js-blob-svg" viewBox="0 0 100 100" xmlns="http://www.w3.org/2000/svg" version="1.1">
                    <defs> 
                        <linearGradient id="sw-gradient" x1="0" x2="1" y1="1" y2="0">
                            <stop id="stop1" stop-color="rgba(248, 117, 55, 0.64)" offset="0%"></stop>
                            <stop id="stop2" stop-color="rgba(251, 168, 31, 0.12)" offset="100%"></stop>
                        </linearGradient>
                    </defs>
                <path fill="url(#sw-gradient)" d="M21.2,-34C27,-33.4,31,-26.8,30.3,-20.1C29.7,-13.4,24.6,-6.7,25.9,0.8C27.3,8.3,35.1,16.5,35.1,22.2C35.1,27.8,27.3,30.8,20.2,30.3C13,29.7,6.5,25.5,1.7,22.6C-3.2,19.7,-6.4,18.2,-10.9,17.2C-15.4,16.3,-21.3,16,-23.7,13.2C-26.2,10.4,-25.2,5.2,-23.7,0.9C-22.2,-3.5,-20.2,-7,-19,-12C-17.8,-17,-17.6,-23.5,-14.6,-25.7C-11.6,-27.8,-5.8,-25.6,1,-27.2C7.7,-28.9,15.4,-34.5,21.2,-34Z" width="100%" height="100%" transform="translate(50 50)" style="transition: 0.3s;" stroke-width="0" stroke="url(#sw-gradient)"></path>
              </svg>