<!--?xml version="1.0" standalone="no"?-->
              <svg id="sw-js-blob-svg" viewBox="0 0 100 100" xmlns="http://www.w3.org/2000/svg" version="1.1">
                    <defs> 
                        <linearGradient id="sw-gradient" x1="0" x2="1" y1="1" y2="0">
                            <stop id="stop1" stop-color="rgba(248, 117, 55, 1)" offset="0%"></stop>
                            <stop id="stop2" stop-color="rgba(251, 168, 31, 0.51)" offset="100%"></stop>
                        </linearGradient>
                    </defs>
                <path fill="url(#sw-gradient)" d="M18.9,-21.8C26.3,-16.3,35.5,-12.1,37.2,-6C38.9,0.1,33.2,8,28.5,16.8C23.8,25.6,20.1,35.3,12.9,39.7C5.7,44.1,-4.9,43.3,-11.1,37.9C-17.3,32.4,-19.2,22.3,-22.5,14.1C-25.9,6,-30.9,-0.2,-31.4,-7C-32,-13.9,-28.2,-21.5,-22.3,-27.3C-16.3,-33,-8.2,-36.9,-1.2,-35.4C5.7,-34,11.5,-27.2,18.9,-21.8Z" width="100%" height="100%" transform="translate(50 50)" style="transition: 0.3s;" stroke-width="0" stroke="url(#sw-gradient)"></path>
              </svg>