<!--?xml version="1.0" standalone="no"?-->
              <svg id="sw-js-blob-svg" viewBox="0 0 100 100" xmlns="http://www.w3.org/2000/svg" version="1.1">
                    <defs> 
                        <linearGradient id="sw-gradient" x1="0" x2="1" y1="1" y2="0">
                            <stop id="stop1" stop-color="rgba(248, 117, 55, 0.42)" offset="0%"></stop>
                            <stop id="stop2" stop-color="rgba(251, 168, 31, 0.7)" offset="100%"></stop>
                        </linearGradient>
                    </defs>
                <path fill="url(#sw-gradient)" d="M18,-27.8C23.1,-24.7,26.8,-19.3,27.4,-13.8C27.9,-8.2,25.3,-2.5,25.9,4.8C26.5,12,30.3,20.8,28.7,27.8C27.1,34.8,20.2,40,13.5,38.6C6.8,37.3,0.3,29.2,-7.1,26.2C-14.5,23.1,-22.7,25,-27.7,22.3C-32.7,19.6,-34.5,12.4,-36.4,4.7C-38.2,-3,-40.2,-11.1,-38.6,-18.9C-37,-26.6,-31.8,-34,-24.8,-36.2C-17.7,-38.3,-8.9,-35.3,-1.2,-33.4C6.4,-31.5,12.9,-30.8,18,-27.8Z" width="100%" height="100%" transform="translate(50 50)" style="transition: 0.3s;" stroke-width="0" stroke="url(#sw-gradient)"></path>
              </svg>