<!--?xml version="1.0" standalone="no"?-->
              <svg id="sw-js-blob-svg" viewBox="0 0 100 100" xmlns="http://www.w3.org/2000/svg" version="1.1">
                    <defs> 
                        <linearGradient id="sw-gradient" x1="0" x2="1" y1="1" y2="0">
                            <stop id="stop1" stop-color="rgba(248, 117, 55, 0.73)" offset="0%"></stop>
                            <stop id="stop2" stop-color="rgba(251, 168, 31, 1)" offset="100%"></stop>
                        </linearGradient>
                    </defs>
                <path fill="url(#sw-gradient)" d="M13.6,-14.4C20.1,-10.7,29.5,-8.8,32.9,-3.8C36.2,1.3,33.3,9.4,29.6,18.1C25.8,26.7,21.1,35.8,14.5,36.8C8,37.8,-0.3,30.7,-6,24.9C-11.7,19.2,-14.8,14.8,-15.7,10.4C-16.5,6.1,-15.1,1.8,-14.9,-3.2C-14.7,-8.3,-15.7,-14.1,-13.5,-18.5C-11.2,-22.9,-5.6,-25.9,-1,-24.7C3.5,-23.5,7.1,-18,13.6,-14.4Z" width="100%" height="100%" transform="translate(50 50)" style="transition: 0.3s;" stroke-width="0" stroke="url(#sw-gradient)"></path>
              </svg>