<!--?xml version="1.0" standalone="no"?-->
              <svg id="sw-js-blob-svg" viewBox="0 0 100 100" xmlns="http://www.w3.org/2000/svg" version="1.1">
                    <defs> 
                        <linearGradient id="sw-gradient" x1="0" x2="1" y1="1" y2="0">
                            <stop id="stop1" stop-color="rgba(248, 117, 55, 0.64)" offset="0%"></stop>
                            <stop id="stop2" stop-color="rgba(251, 168, 31, 0.12)" offset="100%"></stop>
                        </linearGradient>
                    </defs>
                <path fill="url(#sw-gradient)" d="M19.4,-33.1C26.2,-29.6,33.6,-26.7,35.5,-21.2C37.3,-15.8,33.6,-7.9,32.5,-0.6C31.4,6.6,32.9,13.3,32,20.4C31.2,27.5,27.9,35,22.1,36.9C16.4,38.7,8.2,34.8,0.8,33.5C-6.7,32.2,-13.4,33.5,-19.6,31.9C-25.9,30.4,-31.7,26,-35.9,20.2C-40.1,14.4,-42.8,7.2,-41.6,0.7C-40.5,-5.9,-35.5,-11.7,-30.4,-16C-25.3,-20.4,-20.1,-23.1,-15,-27.6C-10,-32.1,-5,-38.3,0.6,-39.4C6.3,-40.5,12.5,-36.6,19.4,-33.1Z" width="100%" height="100%" transform="translate(50 50)" style="transition: 0.3s;" stroke-width="0" stroke="url(#sw-gradient)"></path>
              </svg>