<!--?xml version="1.0" standalone="no"?-->
              <svg id="sw-js-blob-svg" viewBox="0 0 100 100" xmlns="http://www.w3.org/2000/svg" version="1.1">
                    <defs> 
                        <linearGradient id="sw-gradient" x1="0" x2="1" y1="1" y2="0">
                            <stop id="stop1" stop-color="rgba(248, 117, 55, 1)" offset="0%"></stop>
                            <stop id="stop2" stop-color="rgba(251, 168, 31, 0.7)" offset="100%"></stop>
                        </linearGradient>
                    </defs>
                <path fill="url(#sw-gradient)" d="M13.7,-23.1C18.3,-18.4,22.9,-15.5,27.1,-11C31.3,-6.5,35,-0.5,33.8,4.5C32.6,9.5,26.3,13.5,21.5,18.1C16.7,22.8,13.3,28.2,8,31.9C2.7,35.6,-4.5,37.7,-12.2,37.4C-19.9,37.1,-28.2,34.3,-33.6,28.7C-39,23.1,-41.5,14.7,-40.6,7.1C-39.8,-0.5,-35.5,-7.4,-31.6,-13.8C-27.8,-20.3,-24.2,-26.3,-19,-30.7C-13.8,-35.1,-6.9,-37.9,-1.2,-36.1C4.6,-34.2,9.1,-27.7,13.7,-23.1Z" width="100%" height="100%" transform="translate(50 50)" style="transition: 0.3s;" stroke-width="0" stroke="url(#sw-gradient)"></path>
              </svg>