<!--?xml version="1.0" standalone="no"?-->
              <svg id="sw-js-blob-svg" viewBox="0 0 100 100" xmlns="http://www.w3.org/2000/svg" version="1.1">
                    <defs> 
                        <linearGradient id="sw-gradient" x1="0" x2="1" y1="1" y2="0">
                            <stop id="stop1" stop-color="rgba(248, 117, 55, 0.42)" offset="0%"></stop>
                            <stop id="stop2" stop-color="rgba(251, 168, 31, 1)" offset="100%"></stop>
                        </linearGradient>
                    </defs>
                <path fill="url(#sw-gradient)" d="M18.9,-27.7C26,-24.8,34.3,-22.1,37.3,-16.7C40.4,-11.2,38.2,-3,37.3,5.7C36.5,14.3,37.1,23.5,32.1,25.8C27,28.2,16.3,23.7,8.1,24.9C-0.2,26.1,-5.9,33,-11.3,33.7C-16.8,34.4,-21.8,28.8,-25.5,23C-29.1,17.1,-31.4,11,-29.6,5.9C-27.7,0.9,-21.6,-3.1,-19,-8.7C-16.5,-14.2,-17.4,-21.4,-14.8,-26.4C-12.2,-31.3,-6.1,-34.1,-0.1,-33.9C5.9,-33.7,11.8,-30.6,18.9,-27.7Z" width="100%" height="100%" transform="translate(50 50)" style="transition: 0.3s;" stroke-width="0" stroke="url(#sw-gradient)"></path>
              </svg>